<?xml version="1.0" encoding="utf-8"?>
<!-- Generator: Adobe Illustrator 23.0.3, SVG Export Plug-In . SVG Version: 6.00 Build 0)  -->
<svg version="1.1" id="Capa_1" xmlns="http://www.w3.org/2000/svg" xmlns:xlink="http://www.w3.org/1999/xlink" x="0px" y="0px"
	 viewBox="0 0 59 59" style="enable-background:new 0 0 59 59;" xml:space="preserve">
<style type="text/css">
	.st0{fill:#FFFFFF;}
</style>
<g>
	<path class="st0" d="M29.5,51c0.6,0,1-0.4,1-1V17c0-0.6-0.4-1-1-1s-1,0.4-1,1v33C28.5,50.6,28.9,51,29.5,51z"/>
	<path class="st0" d="M19.5,51c0.6,0,1-0.4,1-1V17c0-0.6-0.4-1-1-1s-1,0.4-1,1v33C18.5,50.6,18.9,51,19.5,51z"/>
	<path class="st0" d="M39.5,51c0.6,0,1-0.4,1-1V17c0-0.6-0.4-1-1-1s-1,0.4-1,1v33C38.5,50.6,38.9,51,39.5,51z"/>
	<path class="st0" d="M52.5,6h-14c-0.1-1.3-0.5-3.4-1.8-4.7C35.8,0.4,34.8,0,33.5,0h-10c-1.3,0-2.3,0.4-3.1,1.3
		C19,2.6,18.7,4.8,18.5,6h-12c-0.6,0-1,0.4-1,1s0.4,1,1,1h2l1.9,46c0,1.7,1.1,5,4.9,5h28.3c3.8,0,4.9-3.3,4.9-5l1.9-46h2
		c0.6,0,1-0.4,1-1S53.1,6,52.5,6z M21.8,2.7c0.4-0.5,1-0.7,1.7-0.7h10c0.7,0,1.3,0.2,1.7,0.7C36,3.5,36.3,5,36.4,6H20.6
		C20.7,5,21,3.5,21.8,2.7z M46.5,54c0,0.3-0.1,3-2.9,3H15.4c-2.7,0-2.9-2.7-2.9-3L10.5,8h37.9L46.5,54z"/>
</g>
</svg>
