<svg xmlns="http://www.w3.org/2000/svg" viewBox="0 0 18.26 18.26"><defs><style>.cls-1{fill:#fff;fill-rule:evenodd;}</style></defs><title>Asset 1</title><g id="Layer_2" data-name="Layer 2"><g id="Layer_1-2" data-name="Layer 1"><path id="Path_174" data-name="Path 174" class="cls-1" d="M18.21,8.12a.6.6,0,0,0-.59-.45,2,2,0,0,1-1.38-3.51.52.52,0,0,0,.06-.69A9.53,9.53,0,0,0,14.85,2a.52.52,0,0,0-.7.05,2.09,2.09,0,0,1-2.27.52,2,2,0,0,1-1.24-2A.5.5,0,0,0,10.2.06a8.87,8.87,0,0,0-2.06,0,.49.49,0,0,0-.45.52A2,2,0,0,1,6.44,2.53,2.11,2.11,0,0,1,4.18,2,.52.52,0,0,0,3.49,2,8.89,8.89,0,0,0,2,3.41a.51.51,0,0,0,.05.7,2,2,0,0,1,.51,2.28,2.1,2.1,0,0,1-2,1.23.51.51,0,0,0-.53.45,9,9,0,0,0,0,2.08.61.61,0,0,0,.6.45,2,2,0,0,1,1.88,1.25A2,2,0,0,1,2,14.1a.51.51,0,0,0-.06.69,9.1,9.1,0,0,0,1.45,1.46.5.5,0,0,0,.7-.05,2.07,2.07,0,0,1,2.27-.51,2,2,0,0,1,1.23,2,.5.5,0,0,0,.45.53,9.37,9.37,0,0,0,2,0,.5.5,0,0,0,.45-.52,2,2,0,0,1,1.25-2,2.13,2.13,0,0,1,2.27.51.5.5,0,0,0,.68.06,8.89,8.89,0,0,0,1.48-1.46.5.5,0,0,0-.05-.69,2,2,0,0,1,1.35-3.52h.12a.5.5,0,0,0,.53-.45A9.55,9.55,0,0,0,18.21,8.12ZM9.14,12.2a3,3,0,1,1,3.06-3,3,3,0,0,1-3.06,3Z"/></g></g></svg>