<svg xmlns="http://www.w3.org/2000/svg" viewBox="0 0 33 23.63"><defs><style>.cls-1{fill:#333;}</style></defs><title>HamburgerMenu</title><g id="Layer_2" data-name="Layer 2"><g id="Layer_1-2" data-name="Layer 1"><path id="Tracé_149" data-name="Tracé 149" class="cls-1" d="M32,10.93H1a1,1,0,0,0-1,.88,1,1,0,0,0,1,.87H32a1,1,0,0,0,1-.87A1,1,0,0,0,32,10.93Z"/><path id="Tracé_150" data-name="Tracé 150" class="cls-1" d="M1,1.75H32a1,1,0,0,0,1-.87A1,1,0,0,0,32,0H1A1,1,0,0,0,0,.88,1,1,0,0,0,1,1.75Z"/><path id="Tracé_151" data-name="Tracé 151" class="cls-1" d="M32,21.86H1a.89.89,0,0,0-.29,1.75.71.71,0,0,0,.29,0H32a.88.88,0,0,0,1-.72.9.9,0,0,0-.73-1Z"/></g></g></svg>