<svg xmlns="http://www.w3.org/2000/svg" viewBox="0 0 25.51 19.69"><defs><style>.cls-1{fill:#333;}</style></defs><title>Asset 4</title><g id="Layer_2" data-name="Layer 2"><g id="Layer_1-2" data-name="Layer 1"><g id="Asset_3" data-name="Asset 3"><g id="dfa2fe89780ea3853b46d5b177dc96b0"><path id="Path_278" data-name="Path 278" class="cls-1" d="M15.46,19.69H2.9A2.89,2.89,0,0,1,0,16.8V4.23a2.9,2.9,0,0,1,2.9-2.9H13.53v1H2.9A1.92,1.92,0,0,0,1,4.23H1V16.8A1.92,1.92,0,0,0,2.9,18.73H15.46a1.92,1.92,0,0,0,1.93-1.93V14.09h1V16.8A2.89,2.89,0,0,1,15.46,19.69ZM6.24,17.28a.78.78,0,0,1-.73-.44,7.39,7.39,0,0,1-.38-.74,10.1,10.1,0,0,1-.78-5.89,7,7,0,0,1,2.2-4.06c2-2,5.45-3.06,10.15-3.06h1.66v-2A1.1,1.1,0,0,1,19.47,0h0a1.06,1.06,0,0,1,.77.32l4.94,4.94.1.1.06-.05v.13a1.1,1.1,0,0,1-.14,1.37l-.82.85h0L20.3,11.74a1.06,1.06,0,0,1-.75.33,1,1,0,0,1-.76-.3,1.07,1.07,0,0,1-.34-.8V9H16.71c-.64,0-1.46,0-2.49.07a12.55,12.55,0,0,0-3,.5,9.4,9.4,0,0,0-2.34,1,3.78,3.78,0,0,0-1.16,1,6.6,6.6,0,0,0-.84,3.16v1.32a2.16,2.16,0,0,1,0,.36.79.79,0,0,1-.73.81ZM16.7,4.06c-4.44,0-7.62,1-9.48,2.78a6.19,6.19,0,0,0-1.93,3.54A9.18,9.18,0,0,0,6,15.58v-.79a7.64,7.64,0,0,1,1-3.69A4.86,4.86,0,0,1,8.38,9.74,10.4,10.4,0,0,1,11,8.7a13.31,13.31,0,0,1,3.2-.54c1.05-.05,1.93-.08,2.54-.08h2.62v3.05a.15.15,0,0,0,.16,0l5-5a.15.15,0,0,0,0-.18L19.56,1c-.15,0-.2,0-.2.08v3Z"/></g></g></g></g></svg>