<svg id="Laag_1" data-name="Laag 1" xmlns="http://www.w3.org/2000/svg" xmlns:xlink="http://www.w3.org/1999/xlink" viewBox="0 0 17.51 17.51"><defs><style>.cls-1{fill:none;}.cls-2{clip-path:url(#clip-path);}.cls-3,.cls-4{isolation:isolate;}.cls-4{font-size:12px;font-family:Lato-Regular, Lato;}.cls-4,.cls-5{fill:#333;}</style><clipPath id="clip-path" transform="translate(-1216.06 -1016.36)"><rect class="cls-1" x="1216.06" y="1016.36" width="17.51" height="17.51"/></clipPath></defs><title>icon</title><g class="cls-2"><g id="Vraagteken"><g id="_" data-name=" " class="cls-3"><text class="cls-4" transform="translate(6.87 12.91)">?</text></g><g id="Path_152" data-name="Path 152"><path class="cls-1" d="M1224.81,1016.36a8.76,8.76,0,1,1-8.75,8.76h0A8.76,8.76,0,0,1,1224.81,1016.36Z" transform="translate(-1216.06 -1016.36)"/><path class="cls-5" d="M1224.81,1017.36a7.76,7.76,0,1,0,7.76,7.76,7.76,7.76,0,0,0-7.76-7.76m0-1a8.76,8.76,0,1,1-8.75,8.76A8.76,8.76,0,0,1,1224.81,1016.36Z" transform="translate(-1216.06 -1016.36)"/></g></g></g></svg>